<?xml version="1.0" encoding="UTF-8" standalone="no"?><!-- Generator: Gravit.io --><svg xmlns="http://www.w3.org/2000/svg" xmlns:xlink="http://www.w3.org/1999/xlink" style="isolation:isolate" viewBox="0 0 1624 1728" width="1624pt" height="1728pt"><defs><clipPath id="_clipPath_Obn1YoEpIRALay47NbvzNvOyCmSLnu4Y"><rect width="1624" height="1728"/></clipPath></defs><g clip-path="url(#_clipPath_Obn1YoEpIRALay47NbvzNvOyCmSLnu4Y)"><path d="M 145.8 0 L 1478.2 0 C 1555.91 0 1619 63.09 1619 140.8 L 1619 1587.2 C 1619 1664.91 1555.91 1728 1478.2 1728 L 145.8 1728 C 68.09 1728 5 1664.91 5 1587.2 L 5 140.8 C 5 63.09 68.09 0 145.8 0 Z" style="stroke:none;fill:#FFFFFF;stroke-miterlimit:10;"/><g><clipPath id="_clipPath_6ICgsdLwIQMKMorQWO3oQO8lthM2Kh3G"><path d=" M 1184.057 561.088 L 1183.227 741.923 L 1182.396 922.758 C 1182.311 941.244 1169.211 963.695 1153.16 972.864 L 996.136 1062.562 L 839.113 1152.26 C 823.062 1161.429 797.069 1161.31 781.103 1151.994 L 624.91 1060.857 L 468.717 969.72 C 452.751 960.404 439.858 937.833 439.943 919.348 L 440.773 738.513 L 441.604 557.678 C 441.689 539.193 454.789 516.741 470.84 507.572 L 627.864 417.874 L 784.887 328.176 C 800.938 319.007 826.931 319.126 842.897 328.442 L 999.09 419.579 L 1155.283 510.716 C 1171.249 520.032 1184.142 542.603 1184.057 561.088 Z " fill="rgb(255,255,255)"/></clipPath><g clip-path="url(#_clipPath_6ICgsdLwIQMKMorQWO3oQO8lthM2Kh3G)"><linearGradient id="_lgradient_2" x1="0.1464466094067262" y1="0.14644660940672627" x2="0.8535533905932737" y2="0.8535533905932737" gradientTransform="matrix(7.045,-857.285,743.984,6.113,436.486,1165.804)" gradientUnits="userSpaceOnUse"><stop offset="0%" stop-opacity="1" style="stop-color:rgb(54,55,149)"/><stop offset="100%" stop-opacity="1" style="stop-color:rgb(0,92,151)"/></linearGradient><path d=" M 1184.057 561.088 L 1183.227 741.923 L 1182.396 922.758 C 1182.311 941.244 1169.211 963.695 1153.16 972.864 L 996.136 1062.562 L 839.113 1152.26 C 823.062 1161.429 797.069 1161.31 781.103 1151.994 L 624.91 1060.857 L 468.717 969.72 C 452.751 960.404 439.858 937.833 439.943 919.348 L 440.773 738.513 L 441.604 557.678 C 441.689 539.193 454.789 516.741 470.84 507.572 L 627.864 417.874 L 784.887 328.176 C 800.938 319.007 826.931 319.126 842.897 328.442 L 999.09 419.579 L 1155.283 510.716 C 1171.249 520.032 1184.142 542.603 1184.057 561.088 Z " fill="url(#_lgradient_2)"/><g><rect x="593.307" y="694.752" width="436.475" height="95.807" transform="matrix(-0.491,-0.871,0.871,-0.491,562.964,1814.267)" fill="rgb(210,210,210)"/><rect x="395.182" y="784.359" width="606.486" height="95.816" transform="matrix(0,-1,1,0,-133.842,1530.692)" fill="rgb(255,255,255)"/><rect x="615.419" y="598.497" width="620.313" height="95.816" transform="matrix(0,-1,1,0,279.17,1571.98)" fill="rgb(255,255,255)"/></g></g><path d=" M 996.347 1338.387 L 996.347 1340.044 L 996.347 1340.044 Q 996.347 1366.966 984.853 1382.033 L 984.853 1382.033 L 984.853 1382.033 Q 973.359 1397.099 952.753 1397.099 L 952.753 1397.099 L 952.753 1397.099 Q 934.529 1397.099 923.656 1383.12 L 923.656 1383.12 L 922.31 1395.028 L 895.387 1395.028 L 895.387 1235.978 L 925.313 1235.978 L 925.313 1293.033 L 925.313 1293.033 Q 935.668 1280.918 952.546 1280.918 L 952.546 1280.918 L 952.546 1280.918 Q 973.048 1280.918 984.697 1295.984 L 984.697 1295.984 L 984.697 1295.984 Q 996.347 1311.051 996.347 1338.387 L 996.347 1338.387 L 996.347 1338.387 Z  M 966.421 1337.87 L 966.421 1337.87 L 966.421 1337.87 Q 966.421 1320.888 961.037 1313.07 L 961.037 1313.07 L 961.037 1313.07 Q 955.652 1305.252 944.987 1305.252 L 944.987 1305.252 L 944.987 1305.252 Q 930.697 1305.252 925.313 1316.953 L 925.313 1316.953 L 925.313 1361.168 L 925.313 1361.168 Q 930.801 1372.972 945.194 1372.972 L 945.194 1372.972 L 945.194 1372.972 Q 959.691 1372.972 964.247 1358.683 L 964.247 1358.683 L 964.247 1358.683 Q 966.421 1351.848 966.421 1337.87 Z  M 1046.36 1282.989 L 1046.36 1395.028 L 1016.331 1395.028 L 1016.331 1282.989 L 1046.36 1282.989 L 1046.36 1282.989 Z  M 1014.571 1253.996 L 1014.571 1253.996 L 1014.571 1253.996 Q 1014.571 1247.265 1019.075 1242.916 L 1019.075 1242.916 L 1019.075 1242.916 Q 1023.58 1238.567 1031.346 1238.567 L 1031.346 1238.567 L 1031.346 1238.567 Q 1039.008 1238.567 1043.564 1242.916 L 1043.564 1242.916 L 1043.564 1242.916 Q 1048.121 1247.265 1048.121 1253.996 L 1048.121 1253.996 L 1048.121 1253.996 Q 1048.121 1260.83 1043.513 1265.179 L 1043.513 1265.179 L 1043.513 1265.179 Q 1038.905 1269.528 1031.346 1269.528 L 1031.346 1269.528 L 1031.346 1269.528 Q 1023.787 1269.528 1019.179 1265.179 L 1019.179 1265.179 L 1019.179 1265.179 Q 1014.571 1260.83 1014.571 1253.996 Z  M 1076.907 1255.445 L 1106.832 1255.445 L 1106.832 1282.989 L 1125.989 1282.989 L 1125.989 1304.941 L 1106.832 1304.941 L 1106.832 1360.857 L 1106.832 1360.857 Q 1106.832 1367.07 1109.214 1369.762 L 1109.214 1369.762 L 1109.214 1369.762 Q 1111.595 1372.455 1118.326 1372.455 L 1118.326 1372.455 L 1118.326 1372.455 Q 1123.296 1372.455 1127.128 1371.73 L 1127.128 1371.73 L 1127.128 1394.407 L 1127.128 1394.407 Q 1118.326 1397.099 1109.007 1397.099 L 1109.007 1397.099 L 1109.007 1397.099 Q 1077.528 1397.099 1076.907 1365.31 L 1076.907 1365.31 L 1076.907 1304.941 L 1060.546 1304.941 L 1060.546 1282.989 L 1076.907 1282.989 L 1076.907 1255.445 L 1076.907 1255.445 Z  M 1203.339 1364.067 L 1203.339 1364.067 L 1203.339 1364.067 Q 1203.339 1358.579 1197.903 1355.421 L 1197.903 1355.421 L 1197.903 1355.421 Q 1192.466 1352.263 1180.455 1349.778 L 1180.455 1349.778 L 1180.455 1349.778 Q 1140.485 1341.39 1140.485 1315.814 L 1140.485 1315.814 L 1140.485 1315.814 Q 1140.485 1300.903 1152.859 1290.911 L 1152.859 1290.911 L 1152.859 1290.911 Q 1165.233 1280.918 1185.218 1280.918 L 1185.218 1280.918 L 1185.218 1280.918 Q 1206.549 1280.918 1219.337 1290.962 L 1219.337 1290.962 L 1219.337 1290.962 Q 1232.125 1301.006 1232.125 1317.056 L 1232.125 1317.056 L 1202.2 1317.056 L 1202.2 1317.056 Q 1202.2 1310.636 1198.058 1306.443 L 1198.058 1306.443 L 1198.058 1306.443 Q 1193.916 1302.249 1185.114 1302.249 L 1185.114 1302.249 L 1185.114 1302.249 Q 1177.555 1302.249 1173.413 1305.666 L 1173.413 1305.666 L 1173.413 1305.666 Q 1169.272 1309.083 1169.272 1314.364 L 1169.272 1314.364 L 1169.272 1314.364 Q 1169.272 1319.334 1173.983 1322.389 L 1173.983 1322.389 L 1173.983 1322.389 Q 1178.694 1325.444 1189.878 1327.67 L 1189.878 1327.67 L 1189.878 1327.67 Q 1201.061 1329.896 1208.723 1332.692 L 1208.723 1332.692 L 1208.723 1332.692 Q 1232.436 1341.39 1232.436 1362.825 L 1232.436 1362.825 L 1232.436 1362.825 Q 1232.436 1378.15 1219.285 1387.624 L 1219.285 1387.624 L 1219.285 1387.624 Q 1206.135 1397.099 1185.321 1397.099 L 1185.321 1397.099 L 1185.321 1397.099 Q 1171.239 1397.099 1160.315 1392.077 L 1160.315 1392.077 L 1160.315 1392.077 Q 1149.39 1387.055 1143.177 1378.305 L 1143.177 1378.305 L 1143.177 1378.305 Q 1136.965 1369.555 1136.965 1359.407 L 1136.965 1359.407 L 1165.337 1359.407 L 1165.337 1359.407 Q 1165.751 1367.381 1171.239 1371.626 L 1171.239 1371.626 L 1171.239 1371.626 Q 1176.727 1375.872 1185.943 1375.872 L 1185.943 1375.872 L 1185.943 1375.872 Q 1194.537 1375.872 1198.938 1372.61 L 1198.938 1372.61 L 1198.938 1372.61 Q 1203.339 1369.348 1203.339 1364.067 Z  M 518.37 1244.262 L 518.37 1395.028 L 498.385 1395.028 L 422.484 1278.847 L 422.484 1395.028 L 402.5 1395.028 L 402.5 1244.262 L 422.484 1244.262 L 498.592 1360.961 L 498.592 1244.262 L 518.37 1244.262 L 518.37 1244.262 Z  M 639.935 1395.028 L 619.847 1395.028 L 619.847 1395.028 Q 618.19 1391.714 617.154 1383.224 L 617.154 1383.224 L 617.154 1383.224 Q 603.797 1397.099 585.262 1397.099 L 585.262 1397.099 L 585.262 1397.099 Q 568.694 1397.099 558.08 1387.728 L 558.08 1387.728 L 558.08 1387.728 Q 547.467 1378.357 547.467 1363.964 L 547.467 1363.964 L 547.467 1363.964 Q 547.467 1346.464 560.773 1336.782 L 560.773 1336.782 L 560.773 1336.782 Q 574.078 1327.101 598.205 1327.101 L 598.205 1327.101 L 616.844 1327.101 L 616.844 1318.299 L 616.844 1318.299 Q 616.844 1308.255 610.838 1302.301 L 610.838 1302.301 L 610.838 1302.301 Q 604.832 1296.347 593.131 1296.347 L 593.131 1296.347 L 593.131 1296.347 Q 582.88 1296.347 575.942 1301.524 L 575.942 1301.524 L 575.942 1301.524 Q 569.005 1306.702 569.005 1314.054 L 569.005 1314.054 L 549.745 1314.054 L 549.745 1314.054 Q 549.745 1305.666 555.699 1297.848 L 555.699 1297.848 L 555.699 1297.848 Q 561.653 1290.03 571.852 1285.474 L 571.852 1285.474 L 571.852 1285.474 Q 582.052 1280.918 594.27 1280.918 L 594.27 1280.918 L 594.27 1280.918 Q 613.634 1280.918 624.61 1290.6 L 624.61 1290.6 L 624.61 1290.6 Q 635.586 1300.282 636 1317.264 L 636 1317.264 L 636 1368.83 L 636 1368.83 Q 636 1384.259 639.935 1393.371 L 639.935 1393.371 L 639.935 1395.028 L 639.935 1395.028 Z  M 588.057 1380.428 L 588.057 1380.428 L 588.057 1380.428 Q 597.066 1380.428 605.143 1375.768 L 605.143 1375.768 L 605.143 1375.768 Q 613.219 1371.108 616.844 1363.653 L 616.844 1363.653 L 616.844 1340.665 L 601.829 1340.665 L 601.829 1340.665 Q 566.623 1340.665 566.623 1361.271 L 566.623 1361.271 L 566.623 1361.271 Q 566.623 1370.28 572.629 1375.354 L 572.629 1375.354 L 572.629 1375.354 Q 578.635 1380.428 588.057 1380.428 Z  M 755.287 1395.028 L 735.199 1395.028 L 735.199 1395.028 Q 733.542 1391.714 732.507 1383.224 L 732.507 1383.224 L 732.507 1383.224 Q 719.149 1397.099 700.614 1397.099 L 700.614 1397.099 L 700.614 1397.099 Q 684.046 1397.099 673.433 1387.728 L 673.433 1387.728 L 673.433 1387.728 Q 662.819 1378.357 662.819 1363.964 L 662.819 1363.964 L 662.819 1363.964 Q 662.819 1346.464 676.125 1336.782 L 676.125 1336.782 L 676.125 1336.782 Q 689.431 1327.101 713.557 1327.101 L 713.557 1327.101 L 732.196 1327.101 L 732.196 1318.299 L 732.196 1318.299 Q 732.196 1308.255 726.19 1302.301 L 726.19 1302.301 L 726.19 1302.301 Q 720.184 1296.347 708.484 1296.347 L 708.484 1296.347 L 708.484 1296.347 Q 698.232 1296.347 691.295 1301.524 L 691.295 1301.524 L 691.295 1301.524 Q 684.357 1306.702 684.357 1314.054 L 684.357 1314.054 L 665.097 1314.054 L 665.097 1314.054 Q 665.097 1305.666 671.051 1297.848 L 671.051 1297.848 L 671.051 1297.848 Q 677.005 1290.03 687.204 1285.474 L 687.204 1285.474 L 687.204 1285.474 Q 697.404 1280.918 709.623 1280.918 L 709.623 1280.918 L 709.623 1280.918 Q 728.986 1280.918 739.962 1290.6 L 739.962 1290.6 L 739.962 1290.6 Q 750.938 1300.282 751.352 1317.264 L 751.352 1317.264 L 751.352 1368.83 L 751.352 1368.83 Q 751.352 1384.259 755.287 1393.371 L 755.287 1393.371 L 755.287 1395.028 L 755.287 1395.028 Z  M 703.41 1380.428 L 703.41 1380.428 L 703.41 1380.428 Q 712.418 1380.428 720.495 1375.768 L 720.495 1375.768 L 720.495 1375.768 Q 728.572 1371.108 732.196 1363.653 L 732.196 1363.653 L 732.196 1340.665 L 717.182 1340.665 L 717.182 1340.665 Q 681.975 1340.665 681.975 1361.271 L 681.975 1361.271 L 681.975 1361.271 Q 681.975 1370.28 687.981 1375.354 L 687.981 1375.354 L 687.981 1375.354 Q 693.987 1380.428 703.41 1380.428 Z  M 781.381 1282.989 L 799.502 1282.989 L 800.123 1297.072 L 800.123 1297.072 Q 812.963 1280.918 833.673 1280.918 L 833.673 1280.918 L 833.673 1280.918 Q 869.19 1280.918 869.5 1320.991 L 869.5 1320.991 L 869.5 1395.028 L 850.344 1395.028 L 850.344 1320.888 L 850.344 1320.888 Q 850.241 1308.773 844.804 1302.974 L 844.804 1302.974 L 844.804 1302.974 Q 839.368 1297.175 827.874 1297.175 L 827.874 1297.175 L 827.874 1297.175 Q 818.555 1297.175 811.514 1302.146 L 811.514 1302.146 L 811.514 1302.146 Q 804.472 1307.116 800.538 1315.193 L 800.538 1315.193 L 800.538 1395.028 L 781.381 1395.028 L 781.381 1282.989 L 781.381 1282.989 Z " fill="rgb(25,25,25)"/></g></g></svg>