<svg width="288" height="69" viewBox="0 0 288 69" fill="none" xmlns="http://www.w3.org/2000/svg">
<g clip-path="url(#clip0_240_2)">
<path d="M118.633 64.3613H157.962V68.2945H118.633V64.3613Z" fill="#FFB600"/>
<path d="M162.057 64.3613H201.385V68.2945H162.057V64.3613Z" fill="#00169C"/>
<path d="M248.314 64.3613H287.643V68.2945H248.314V64.3613Z" fill="#86D800"/>
<path d="M74.355 64.3613H113.684V68.2945H74.355V64.3613Z" fill="#FF6600"/>
<path d="M205.303 64.3613H244.632V68.2945H205.303V64.3613Z" fill="#A7169C"/>
<path d="M77.3017 48.0838C78.4826 48.7712 79.7428 49.2999 81.0824 49.6701C82.4219 50.0402 83.7439 50.2253 85.0482 50.2253C87.5511 50.2253 89.7014 49.5026 91.4991 48.0573C93.0325 46.8235 94.2047 45.0873 95.0154 42.8487C95.7381 40.857 96.0994 38.6979 96.0994 36.3714C96.0994 34.4854 95.8967 32.7053 95.4913 31.0309C95.0859 29.3565 94.4778 27.8936 93.6671 26.6421C92.8034 25.3202 91.7194 24.2979 90.4151 23.5753C89.1284 22.835 87.6214 22.4648 85.894 22.4648C83.9023 22.4648 82.0075 23.02 80.2096 24.1305C79.0992 24.8179 78.1298 25.6727 77.3014 26.695V22.8615L74.8955 23.3902V59.3203L77.3014 59.5847L77.3017 48.0838ZM77.3017 30.3699C77.3017 30.3346 77.4163 30.1143 77.6454 29.7089C77.8746 29.3212 78.1301 28.951 78.4121 28.5985C79.2582 27.541 80.2276 26.6861 81.3204 26.0339C82.8009 25.1703 84.3784 24.7385 86.0527 24.7385C87.0574 24.7385 88.018 24.994 88.9345 25.5052C89.8687 26.0163 90.6883 26.7654 91.3933 27.7524C92.1336 28.7747 92.7064 30.0173 93.1118 31.4803C93.5172 32.9256 93.7199 34.5559 93.7199 36.3713C93.7199 38.1868 93.4731 39.8965 92.9796 41.5005C92.3803 43.4218 91.499 44.92 90.3357 45.9952C88.9433 47.2994 87.2248 47.9516 85.1801 47.9516C84.0873 47.9516 83.065 47.8282 82.1132 47.5815C80.2097 47.1056 78.6058 46.4534 77.3015 45.625L77.3017 30.3699Z" fill="#F2F2F2"/>
<path d="M121.798 34.6774C121.957 33.7609 122.036 32.906 122.036 32.1129C122.036 28.6405 120.926 26.0848 118.705 24.4457C116.907 23.1414 114.431 22.4893 111.276 22.4893C107.574 22.4893 104.763 23.538 102.842 25.6354C100.85 27.821 99.854 31.1523 99.854 35.6293C99.854 38.2908 100.066 40.5469 100.489 42.3977C100.912 44.2307 101.572 45.7201 102.471 46.8658C103.37 48.0115 104.551 48.8575 106.014 49.4039C107.495 49.9503 109.301 50.2235 111.434 50.2235C113.267 50.2235 115.188 49.9151 117.198 49.2982C118.837 48.8223 120.159 48.2847 121.164 47.6854L120.45 45.676C119.251 46.2048 117.965 46.6807 116.59 47.1037C114.739 47.6678 113.012 47.9498 111.408 47.9498C109.945 47.9498 108.658 47.7647 107.548 47.3946C106.437 47.0244 105.503 46.4163 104.745 45.5703C103.088 43.7196 102.26 40.6439 102.26 36.3433L121.56 35.6031L121.798 34.6774ZM102.366 34.0694C102.666 30.791 103.512 28.4115 104.904 26.9309C106.296 25.468 108.323 24.7366 110.985 24.7366C112.589 24.7366 113.884 24.8688 114.871 25.1331C116.422 25.5561 117.603 26.3405 118.414 27.4862C119.19 28.5966 119.577 30.1124 119.577 32.0337C119.577 32.633 119.56 33.1001 119.525 33.435L102.366 34.0694Z" fill="#F2F2F2"/>
<path d="M149.487 33.9403C149.487 32.1601 149.364 30.6002 149.117 29.2605C148.888 27.9034 148.465 26.7401 147.848 25.7706C147.161 24.6955 146.209 23.8759 144.993 23.3119C143.794 22.7478 142.252 22.4658 140.366 22.4658C138.973 22.4658 137.731 22.6861 136.638 23.1268C135.51 23.5674 134.505 24.0786 133.624 24.6602C132.743 25.2242 131.932 25.894 131.192 26.6696V22.8889L128.786 23.3912V49.5656H131.192V29.4196C131.808 28.5912 132.61 27.8156 133.597 27.093C134.549 26.4056 135.527 25.868 136.532 25.4802C137.784 24.9867 139.097 24.7399 140.472 24.7399C141.758 24.7399 142.825 24.9338 143.671 25.3216C144.534 25.7093 145.222 26.2998 145.733 27.093C146.209 27.8509 146.552 28.7939 146.764 29.9219C146.975 31.0323 147.081 32.3631 147.081 33.9142V40.4974C147.081 42.2952 147.16 43.7317 147.319 44.8068C147.566 46.446 148.059 47.7063 148.8 48.5875C149.716 49.6803 151.012 50.2267 152.686 50.2267C153.532 50.2267 154.237 50.1121 154.801 49.883C155.929 49.4423 156.793 48.7902 157.392 47.9265L156.467 46.2874C155.973 46.8161 155.445 47.2303 154.881 47.53C154.334 47.812 153.647 47.953 152.818 47.953C152.166 47.953 151.629 47.8296 151.206 47.5829C150.8 47.3185 150.474 46.8955 150.227 46.3138C149.963 45.7498 149.778 44.9919 149.672 44.0401C149.566 43.0883 149.505 41.8545 149.487 40.3387L149.487 33.9403Z" fill="#F2F2F2"/>
<path d="M161.91 12.9455C161.91 18.8854 161.919 23.3271 161.937 26.2706V40.5474C161.937 41.9751 161.99 43.1648 162.095 44.1166C162.324 45.9497 162.791 47.3246 163.496 48.2412C164.395 49.4398 165.744 50.0391 167.542 50.0391C168.74 50.0391 169.771 49.854 170.635 49.4839C171.446 49.1314 172.336 48.5145 173.305 47.6332L172.38 45.994C171.728 46.5404 170.996 46.9986 170.186 47.3688C169.375 47.7213 168.546 47.8975 167.7 47.8975C167.013 47.8975 166.458 47.7654 166.035 47.501C165.612 47.219 165.277 46.7695 165.03 46.1526C164.783 45.5357 164.607 44.7073 164.501 43.6673C164.396 42.6274 164.343 41.3055 164.343 39.7015V12.3906L161.91 12.9455Z" fill="#F2F2F2"/>
<path d="M193.934 22.8634V24.6083C192.753 23.9209 191.493 23.3922 190.153 23.022C188.814 22.6519 187.492 22.4668 186.187 22.4668C183.667 22.4668 181.525 23.1806 179.763 24.6083C178.212 25.8598 177.031 27.6047 176.22 29.8433C175.498 31.835 175.136 33.9942 175.136 36.3207C175.136 38.2067 175.339 39.9868 175.744 41.6612C176.15 43.3356 176.758 44.7897 177.569 46.0235C178.432 47.3631 179.507 48.403 180.794 49.1432C182.098 49.8659 183.614 50.2272 185.342 50.2272C187.439 50.2272 189.272 49.6103 190.841 48.3765C191.44 47.9182 191.978 47.4159 192.454 46.8695C192.93 46.3055 193.494 45.5828 194.146 44.7015C194.375 46.3584 194.868 47.645 195.626 48.5616C196.507 49.672 197.812 50.2272 199.539 50.2272C200.685 50.2272 201.698 50.0245 202.58 49.6191C203.461 49.2137 204.369 48.5616 205.303 47.6627L204.377 46.0235C203.725 46.5699 202.985 47.0282 202.157 47.3983C201.346 47.7685 200.517 47.9535 199.671 47.9535C198.984 47.9535 198.429 47.8213 198.006 47.5569C197.6 47.2925 197.274 46.8431 197.028 46.2085C196.781 45.5916 196.605 44.7721 196.499 43.7498C196.393 42.7275 196.34 41.3879 196.34 39.731V23.3921L193.934 22.8634ZM193.934 41.529C193 43.3092 191.801 44.7897 190.338 45.9707C188.699 47.2926 186.972 47.9536 185.156 47.9536C183.869 47.9536 182.741 47.6539 181.772 47.0546C180.82 46.4377 180.018 45.5829 179.366 44.4901C178.749 43.4502 178.282 42.234 177.965 40.8415C177.665 39.4491 177.515 37.9421 177.515 36.3205C177.515 34.505 177.762 32.7953 178.256 31.1913C178.837 29.2701 179.719 27.763 180.9 26.6702C182.31 25.3835 184.028 24.7402 186.055 24.7402C187.642 24.7402 189.025 24.9253 190.206 25.2954C191.528 25.7008 192.77 26.2912 193.934 27.0668L193.934 41.529Z" fill="#F2F2F2"/>
<path d="M211.543 49.5655V48.085C212.177 48.4904 212.883 48.8517 213.658 49.1689C215.456 49.874 217.333 50.2265 219.29 50.2265C221.792 50.2265 223.943 49.5038 225.74 48.0585C227.274 46.8247 228.446 45.0885 229.257 42.8499C229.979 40.8582 230.341 38.6991 230.341 36.3726V35.5001C230.341 35.3062 230.323 35.0154 230.288 34.6277C230.235 33.8874 230.156 33.1735 230.05 32.4861C229.574 29.4897 228.543 27.1191 226.957 25.3742C225.194 23.4354 222.92 22.466 220.135 22.466C218.144 22.466 216.249 23.0212 214.451 24.1316C213.34 24.819 212.371 25.6739 211.543 26.6962V12.5781L209.137 12.9747V49.5658L211.543 49.5655ZM211.543 30.3712C211.807 29.6309 212.248 28.9171 212.865 28.2297C213.499 27.5423 214.231 26.9342 215.059 26.4054C215.87 25.8766 216.725 25.4712 217.624 25.1892C218.54 24.8896 219.43 24.7398 220.294 24.7398C221.299 24.7398 222.259 24.9953 223.176 25.5065C224.11 26.0176 224.93 26.7667 225.635 27.7537C226.375 28.776 226.948 30.0186 227.353 31.4816C227.759 32.9269 227.961 34.5573 227.961 36.3727C227.961 38.1705 227.688 39.8979 227.142 41.5548C226.525 43.476 225.626 44.9742 224.445 46.0494C223.053 47.3185 221.378 47.953 219.422 47.953C218.17 47.953 217.051 47.8208 216.064 47.5564C215.059 47.292 214.187 47.0012 213.447 46.6839C212.724 46.349 212.089 45.9525 211.543 45.4942V30.3712Z" fill="#F2F2F2"/>
<path d="M238.325 15.3526V49.5642H260.824V47.3962H240.73V32.2996H257.175L257.492 30.1581H240.73V15.3526H260.189L260.506 13.1846H238.113L238.325 15.3526Z" fill="#F2F2F2"/>
<path d="M287.734 32.2744C287.734 29.895 287.091 27.9033 285.804 26.2994C284.764 24.9951 283.319 23.9904 281.468 23.2854C280.023 22.739 278.499 22.4658 276.895 22.4658C273.369 22.4658 270.673 23.4 268.804 25.2683C266.689 27.3834 265.632 30.697 265.632 35.2092V37.3772C265.632 41.0786 266.31 43.9692 267.668 46.0489C268.796 47.7586 270.311 48.9308 272.215 49.5653C273.537 50.0059 275.088 50.2262 276.868 50.2262C278.508 50.2262 280.006 49.9971 281.363 49.5388C282.72 49.0629 283.884 48.3843 284.853 47.503C285.822 46.6041 286.563 45.5201 287.074 44.2511C287.603 42.982 287.867 41.572 287.867 40.0211L285.593 40.0475C285.435 41.2637 285.179 42.3389 284.827 43.273C284.474 44.2072 283.981 45.0092 283.346 45.6789C281.883 47.1947 279.733 47.9527 276.895 47.9527C275.15 47.9527 273.696 47.6883 272.533 47.1595C271.387 46.6307 270.479 45.8552 269.81 44.8329C269.175 43.8635 268.717 42.6825 268.435 41.2901C268.17 39.88 268.038 38.2232 268.038 36.3197C268.038 34.5747 268.144 33.0324 268.355 31.6928C268.585 30.3532 268.99 29.1899 269.572 28.2028C270.224 27.0924 271.132 26.2376 272.295 25.6383C273.476 25.039 275 24.7394 276.869 24.7394C279.548 24.7394 281.601 25.4003 283.029 26.7223C284.316 27.9384 285.144 29.7891 285.514 32.2744L287.734 32.2744Z" fill="#F2F2F2"/>
<path d="M36.4905 1.3108C36.3587 1.30286 36.279 1.3108 36.265 1.32328C36.2268 1.36149 36.4369 2.14029 36.7327 3.0538C37.2203 4.56048 37.2528 4.74174 37.0801 5.00533C36.9753 5.16509 35.5167 6.5953 33.8382 8.18311C27.709 13.9813 27.5619 14.1049 27.0332 13.9371C26.6874 13.8272 26.5909 13.6149 24.4129 8.19219C22.6795 3.87635 22.5046 3.50179 22.2558 3.57927C21.6707 3.76156 17.9747 5.36706 17.9142 5.46518C17.8791 5.5221 18.3538 6.45421 18.9699 7.5355C19.5861 8.61678 20.1245 9.71069 20.1658 9.96687C20.2306 10.3662 20.1938 10.4644 19.9023 10.6554C19.7152 10.778 19.3485 10.8857 19.0872 10.8916C18.6571 10.9041 18.5107 10.7998 17.5364 9.79471C16.9447 9.18413 16.1802 8.36899 15.8393 7.98189L15.2209 7.27803L13.5086 8.5562L11.7978 9.83583L12.5534 10.6402C12.9691 11.0825 14.2618 12.4481 15.4265 13.6764C16.5911 14.9046 17.9123 16.3201 18.3621 16.8207C19.2301 17.7867 19.7798 18.6966 19.5991 18.8697C19.405 19.0557 7.52046 24.469 6.90024 24.6538C6.60838 24.7408 6.42326 24.6999 6.04708 24.4634C5.43949 24.0819 3.07192 22.8059 2.97138 22.8059C2.85486 22.8059 2.10787 24.8357 1.81514 25.9472C1.52329 27.0555 1.0942 30.1791 0.957422 32.1977L0.870605 33.5124L3.15268 33.4757C4.40813 33.4553 8.97467 33.3567 13.3015 33.2564C21.277 33.0716 21.3851 33.0643 21.3938 32.6136C21.3938 32.5512 21.0845 32.5268 20.7053 32.559C20.0877 32.6104 9.50274 32.2877 4.3486 32.0592C2.62703 31.9828 2.29586 31.9322 2.01021 31.7074C1.77584 31.5233 1.68668 31.3437 1.71616 31.1026C1.78166 30.54 2.20738 30.4292 4.3181 30.4262C5.36571 30.4262 6.43902 30.3856 6.70374 30.3424L7.18514 30.2632L7.49597 29.0125C7.88855 27.4287 7.9847 27.3542 9.24475 27.6536C10.288 27.9014 10.2222 27.7448 10.04 29.5396L9.93641 30.5571H11.9016L12.1484 29.5396L12.3967 28.5204L13.3169 28.5298C13.8226 28.5378 14.3771 28.6146 14.5492 28.7081C14.8482 28.8702 14.8593 28.9253 14.7929 29.8979L14.7228 30.9155L16.1213 30.9978C16.8903 31.0422 18.2511 31.117 19.1467 31.1653L20.7753 31.2537L20.7098 30.9383C20.6731 30.7649 20.2459 29.3519 19.7607 27.7986C19.2755 26.2454 18.8468 24.7036 18.807 24.3725C18.743 23.8302 18.7718 23.7424 19.098 23.4859C19.5716 23.1126 20.1434 23.1206 20.5269 23.5036C20.721 23.6976 21.1038 24.6262 21.5903 26.0858C22.3478 28.3588 22.3504 28.3653 22.5485 27.9839C23.104 26.9146 25.2597 24.6293 26.7804 23.4976C28.4726 22.2382 30.5432 21.5084 32.8023 21.3755L34.1627 21.2963L32.9455 19.9222C31.5574 18.3539 30.5888 17.0791 30.5888 16.8221C30.5888 16.7242 30.9054 16.5463 31.3017 16.4214C32.193 16.1405 32.0712 16.0657 34.5314 18.3667C35.5582 19.3272 36.4353 20.1284 36.4813 20.1461C36.5453 20.1703 38.3168 16.3454 38.6811 15.396C38.724 15.2845 38.2643 15.0425 37.2947 14.6694C36.4967 14.3622 35.843 14.0599 35.843 13.996C35.843 13.7056 36.7053 11.6408 36.8256 11.6423C36.8996 11.6423 37.5991 11.8465 38.3809 12.0933L39.8037 12.5427L40.1999 11.6652C40.8374 10.2565 40.8559 10.1951 40.6295 10.1951C40.2894 10.1951 37.7627 9.54035 37.6436 9.42125C37.5812 9.35885 37.7999 8.77677 38.1342 8.11112C38.8115 6.76255 38.7311 6.79958 40.1877 7.12851C40.7193 7.24761 41.1697 7.29334 41.1962 7.22758C42.2206 4.58735 42.6483 3.69527 42.8811 3.71001C43.3724 3.74289 44.5666 4.11582 44.6117 4.25086C44.6366 4.32573 43.143 8.33124 41.2922 13.1505C38.4218 20.6242 37.8032 22.3571 38.1281 22.0075C38.2209 21.9076 40.3029 17.7014 43.009 12.1497C45.554 6.9279 46.8769 4.06831 46.8769 3.7924C46.8769 3.46427 44.3556 2.55075 42.1057 2.06334C40.8785 1.79745 37.4127 1.34474 36.4905 1.3108Z" fill="#F2F2F2"/>
<path d="M48.664 4.91651C48.6235 4.95706 45.8607 10.8337 42.5552 17.9113C40.1343 23.0957 39.9483 23.5254 40.0827 23.624C40.2095 23.7166 40.2461 23.6997 40.366 23.5037C40.4417 23.3797 42.005 20.4965 43.8394 17.0963C48.2539 8.91321 49.1958 7.21658 49.5004 6.88965C49.7186 6.65525 49.81 6.61541 50.1326 6.61541C50.4488 6.61541 50.5335 6.6498 50.6506 6.82872C50.8802 7.17916 50.6935 7.74794 49.6497 9.89834C49.1266 10.9759 48.7118 11.8889 48.7265 11.926C48.7413 11.9634 49.0301 12.2265 49.3679 12.511C50.4315 13.4073 50.7602 13.7543 50.7602 13.9857C50.7602 14.1282 50.5581 14.4429 50.1433 14.9484L49.5263 15.701L49.0174 15.3857C48.7372 15.2126 48.231 14.8987 47.8932 14.6879L47.2793 14.3041L46.9274 15.052C46.3842 16.2082 46.3796 16.1608 47.1163 16.7323C47.4618 17.0005 47.8024 17.2649 47.8734 17.3203C47.9828 17.4057 47.9879 17.4705 47.907 17.7408C47.7767 18.1759 46.948 19.2951 46.7127 19.3541C46.4991 19.4079 46.2184 19.2956 45.3797 18.8209L44.7901 18.4873L44.4702 19.0403C44.1749 19.5499 42.994 21.6722 42.176 23.1657C41.9879 23.5089 41.8347 23.8242 41.8347 23.8649C41.8347 23.9055 43.3544 24.1559 45.2121 24.4209C47.0699 24.6859 48.7092 24.9499 48.8546 25.0074C49 25.0651 49.1933 25.233 49.2841 25.3822C49.6463 25.976 49.5645 26.4696 49.048 26.8172C48.6633 27.0761 48.0337 27.0649 45.7163 26.7564C44.6897 26.6195 43.8058 26.5191 43.7526 26.5309C43.6949 26.5449 43.8324 26.8511 44.0939 27.288C44.8818 28.6045 45.6116 30.6956 45.9327 32.5604C46.1299 33.7073 46.1479 35.6116 45.9694 36.462C45.8025 37.256 45.2258 38.9255 44.8573 39.6809C44.6884 40.0273 44.5545 40.3179 44.5633 40.3238C44.5712 40.3317 45.5358 40.0617 46.7067 39.7266C47.8776 39.3916 49.0793 39.0951 49.3772 39.0686C49.8663 39.0241 49.9364 39.0365 50.1039 39.2042C50.269 39.3691 50.2846 39.443 50.2394 39.8745C50.2115 40.1409 50.1514 40.4278 50.1069 40.5112C50.014 40.6849 49.5353 40.8916 46.7585 41.9614C45.6613 42.3842 44.6926 42.7683 44.6059 42.8146C44.4606 42.8926 44.4923 42.9519 45.002 43.5702C45.8919 44.6496 47.7872 46.862 47.9087 46.9628C47.9972 47.0362 48.2467 46.8438 49.1091 46.0366C49.7074 45.4766 50.2464 45.019 50.308 45.019C50.4217 45.019 51.4096 46.0688 51.6775 46.4754C51.9345 46.8649 51.8702 47.0063 50.9859 47.982C49.7999 49.2907 49.8805 49.1409 50.1526 49.4978C50.5306 49.9933 51.4216 50.9967 51.484 50.9967C51.5162 50.9967 51.9268 50.5363 52.3966 49.9746C52.9573 49.304 53.3359 48.9224 53.4995 48.864C53.7393 48.7783 53.7649 48.793 54.1866 49.2509C54.4277 49.5127 54.7904 49.9553 54.9909 50.2351L55.355 50.7439L54.6801 51.6275C54.3091 52.1134 53.975 52.553 53.9368 52.604C53.8923 52.6633 54.0973 52.9574 54.5064 53.4221C56.1194 55.2541 56.3285 55.5189 56.3285 55.7377C56.3285 55.996 55.6114 56.7466 55.2225 56.8954C54.9809 56.9878 54.965 56.9758 54.2505 56.2236C53.3518 55.2773 42.644 43.6416 42.5279 43.4851C42.4435 43.371 42.1623 43.4195 42.1623 43.5475C42.1623 43.649 52.1596 56.7713 53.4049 58.3046C53.7615 58.7435 54.1499 59.1741 54.2687 59.2628C54.3875 59.3518 54.5207 59.425 54.5659 59.4258C54.7528 59.4338 55.8007 58.5459 56.5783 57.7272C57.528 56.7272 58.7334 55.1586 59.945 53.3475C60.762 52.1259 61.5796 50.8154 61.5445 50.7821C61.5351 50.7726 60.8079 50.6669 59.9297 50.5475C59.0516 50.4279 58.2331 50.2915 58.1108 50.2443C57.8474 50.1427 57.763 49.9381 57.1145 47.8312C55.6422 43.0471 54.1972 37.9738 54.1972 37.5849C54.1972 36.9099 54.4393 36.8315 56.2446 36.9223C57.9785 37.0094 65.3163 37.4763 65.5585 37.5149C65.6599 37.5327 65.9945 37.5327 66.0033 37.5274C66.026 37.5032 66.1171 32.3653 66.0993 32.3388C66.0869 32.3218 65.1399 32.3717 63.994 32.45C61.5068 32.6207 60.9037 32.6016 60.644 32.3419C60.422 32.1206 60.4141 31.5938 60.6263 31.1475C60.816 30.7476 61.2137 30.5724 63.606 29.8344C64.705 29.4953 65.8792 29.1058 65.8881 29.094C65.8968 29.0823 65.7578 28.1075 65.4478 26.9765L64.8994 24.9747L64.482 25.0936C64.2523 25.1591 62.4246 25.7431 60.4205 26.3915C53.16 28.7403 53.4386 28.7076 53.3917 27.2507C53.377 26.7783 53.4674 23.5903 53.5928 20.1667L53.8213 13.9422L55.6052 12.6854C56.587 11.9937 57.3907 11.4004 57.3907 11.3677C57.3907 11.2608 56.1839 9.94256 55.6966 9.51676C54.8177 8.74887 53.5977 7.8317 52.4396 7.06865C50.89 6.04765 48.7522 4.82837 48.664 4.91651Z" fill="#F2F2F2"/>
<path d="M21.7728 35.0098L21.2198 35.0644C20.1044 35.1758 5.788 36.8431 3.91411 37.0799C1.95401 37.3274 1.36535 37.4208 0.798726 37.5734L0.483398 37.6573V38.1782C0.483398 39.9366 1.59231 43.1819 3.74505 47.7238C4.38674 49.0775 4.25132 49.0666 5.24099 47.8396C6.56806 46.1944 6.84174 45.9217 7.17271 45.9217C7.57338 45.9217 12.5517 47.1558 18.1061 48.6318C20.5085 49.2701 20.7081 49.3694 20.7081 49.9343C20.7081 50.2811 20.5475 50.5276 16.5782 56.1985C15.1911 58.1801 14.0396 59.8395 14.0219 59.8867C13.9962 59.9538 17.253 62.3336 18.2632 62.9852L18.4795 63.1238L19.6023 60.9042C20.8245 58.4878 21.1383 58.0403 21.6025 58.0403C21.801 58.0403 21.9577 58.1276 22.2439 58.3983C22.6072 58.7411 22.6261 58.781 22.6582 59.2833C22.6926 59.8248 22.4741 60.7843 21.7442 63.3036C21.4777 64.2231 21.4718 64.2714 21.6163 64.3487C22.0573 64.5848 25.7193 65.9825 25.7874 65.9407C25.8311 65.9142 25.8682 65.8379 25.8682 65.7716C25.8682 65.7053 26.1275 64.5553 26.4455 63.2168C28.2047 55.8154 28.7656 53.9411 29.2578 53.8175C29.5091 53.7543 29.7389 53.8776 31.1894 54.8459C32.331 55.6082 40.1548 60.7295 41.2713 61.4453L41.8136 61.7926L41.8682 62.7615C41.9906 64.9345 42.0974 66.4365 42.1349 66.4969C42.2446 66.6748 44.7971 66.0215 46.2848 65.4351C48.8406 64.4278 52.9961 62.2158 52.8355 61.9481C52.3496 61.1387 41.3309 44.4167 41.0732 44.0985C40.9474 43.9431 40.726 43.9092 40.6496 44.033C40.595 44.1213 40.877 44.621 45.8643 53.2905C51.046 62.2983 50.7361 61.7102 50.5853 62.2571C50.4705 62.6729 50.1847 62.8383 49.7855 62.7187C49.6136 62.6672 49.3842 62.5352 49.2767 62.4262C49.1691 62.3171 48.5102 61.3226 47.8126 60.2157C47.115 59.1089 46.5112 58.2033 46.4691 58.2033C46.427 58.2033 45.8925 58.3927 45.2808 58.6253C44.5814 58.8913 44.0318 59.0505 43.8001 59.0564C43.456 59.0644 43.422 59.0432 43.2882 58.77C43.2094 58.6089 43.0639 58.1609 42.9637 57.7737C42.7821 57.0723 42.7814 57.0685 42.9425 56.8901C43.0314 56.7916 43.5732 56.4743 44.1475 56.1863L45.1925 55.6638L44.7402 54.963C44.4918 54.5779 44.2298 54.1726 44.1582 54.0627C44.0864 53.9527 43.9789 53.8631 43.9206 53.8631C43.8621 53.8631 43.4759 53.9918 43.0629 54.1495C42.2224 54.4703 41.9201 54.5026 41.7314 54.2927C41.51 54.0464 40.8525 52.7218 40.8525 52.5225C40.8525 52.2683 41.0411 52.1114 41.998 51.5704L42.807 51.1134L42.4109 50.3624C41.6815 48.9812 39.6655 45.4301 39.6109 45.4297C39.5814 45.4295 38.485 46.7156 37.1735 48.2875C35.8619 49.8594 34.6881 51.2112 34.5654 51.2917C34.2678 51.4872 33.674 51.4824 33.3695 51.2822C32.9149 50.9838 32.7881 50.3284 33.0755 49.7649C33.1665 49.5864 33.9035 48.6117 34.7131 47.5986C35.5228 46.5855 36.1847 45.7393 36.1847 45.7157C36.1847 45.6945 35.8629 45.6751 35.4687 45.6743C33.2728 45.6743 30.5262 45.0079 28.2022 43.9179C26.5543 43.145 24.6614 41.3217 23.632 39.5151L23.2755 38.8891L22.8383 40.4597C22.3138 42.3472 21.7684 44.0124 21.554 44.381C21.4271 44.599 21.3385 44.6559 21.0878 44.6765C20.8115 44.6999 20.7348 44.6587 20.3749 44.2987C19.8286 43.7523 19.8094 44.1322 20.5973 39.9571C20.8465 38.6361 21.0386 37.5421 21.0239 37.5273C20.9646 37.4696 17.0369 38.1105 15.7148 38.3941C15.4721 38.4464 15.305 38.5261 15.305 38.5907C15.305 38.6508 15.4165 39.2836 15.5532 39.9968C15.6897 40.71 15.781 41.3761 15.7575 41.476C15.7333 41.5759 15.6304 41.7014 15.5304 41.7548C15.2117 41.9254 14.2137 42.1509 13.7709 42.1524C13.4154 42.1524 13.3236 42.1229 13.2225 41.9681C13.1554 41.8657 12.9456 41.1933 12.7563 40.4736C12.5671 39.7539 12.3854 39.1345 12.3542 39.098C12.3228 39.0613 11.7208 39.1252 11.0151 39.2412C10.3095 39.3567 9.72132 39.4514 9.70956 39.4514C9.69709 39.4514 9.90051 40.0835 10.1619 40.856C10.4233 41.6285 10.6372 42.3639 10.6372 42.4906C10.6372 42.7863 10.5114 42.849 9.60892 43.007C8.65897 43.1732 8.112 43.1726 7.9271 43.007C7.848 42.9353 7.59201 42.4018 7.35889 41.8204C7.12535 41.2389 6.90962 40.7631 6.87749 40.7631C6.84537 40.7631 6.08696 40.9105 5.19258 41.0906C3.48816 41.4341 2.93484 41.4862 2.79632 41.3161C2.67651 41.169 2.36817 40.1299 2.36817 39.8735C2.36817 39.6847 2.42978 39.6327 2.83895 39.4758C3.28588 39.3044 5.51482 38.813 12.5614 37.3324C15.8434 36.6428 21.6742 35.4404 21.737 35.4404C21.7559 35.4404 21.7736 35.3428 21.7736 35.224L21.7728 35.0098Z" fill="#F2F2F2"/>
<path d="M34.9028 0.00708869C31.6725 -0.059431 28.4081 0.341501 25.1955 1.23986C15.6488 3.90956 7.61047 10.6399 3.41898 19.4954C2.68632 21.0432 1.397 24.5701 1.01984 26.0948C-0.558864 32.4758 -0.303518 39.0208 1.76543 45.3541C2.34419 47.126 3.68781 50.1152 4.63697 51.7321C7.99515 57.4528 12.4232 61.6401 18.4855 64.8644C18.4887 64.8661 18.4897 64.8701 18.4931 64.872L19.5413 65.4256L19.593 65.2854C21.3053 66.0374 24.1016 67.1282 25.314 67.4408C27.3586 67.9683 30.0895 68.3564 32.3417 68.4448C35.324 68.5619 38.0102 68.3299 40.9341 67.6918C50.5817 65.5863 59.0274 59.2075 63.7367 50.47C67.0268 44.3657 68.3931 37.5954 67.7302 30.7012C67.0814 23.9532 64.4822 17.5711 60.2448 12.3644C53.9292 4.60394 44.5939 0.206648 34.9028 0.00708869ZM34.8658 2.06663C43.9605 2.253 52.7142 6.3855 58.6428 13.6709C62.6207 18.559 65.0676 24.5454 65.6776 30.8927C66.3024 37.3905 65.0219 43.7329 61.9202 49.4876C57.5012 57.6865 49.5408 63.7028 40.4979 65.6761C37.725 66.2812 35.2489 66.4957 32.4222 66.3847C30.3475 66.3033 27.6751 65.9231 25.8303 65.4472C24.9703 65.2254 19.9694 63.3193 19.4599 63.0481C13.6757 59.9736 9.60856 56.1093 6.42355 50.6834C5.61787 49.311 4.21861 46.21 3.72916 44.7114C1.77454 38.728 1.54025 32.6018 3.02787 26.5889C3.30389 25.4731 4.69268 21.6359 5.28674 20.3807C9.21481 12.0823 16.781 5.73311 25.7495 3.22502C28.7654 2.38165 31.8342 2.00449 34.8658 2.06663Z" fill="#F2F2F2"/>
<path d="M41.8422 33.5615C41.8422 35.6829 40.9995 37.7175 39.4994 39.2176C37.9993 40.7177 35.9647 41.5605 33.8432 41.5605C31.7218 41.5605 29.6872 40.7177 28.1871 39.2176C26.687 37.7175 25.8442 35.6829 25.8442 33.5615C25.8442 31.44 26.687 29.4055 28.1871 27.9054C29.6872 26.4053 31.7218 25.5625 33.8432 25.5625C35.9647 25.5625 37.9993 26.4053 39.4994 27.9054C40.9995 29.4055 41.8422 31.44 41.8422 33.5615Z" fill="#F2F2F2"/>
</g>
<defs>
<clipPath id="clip0_240_2">
<rect width="287.864" height="68.4737" fill="white"/>
</clipPath>
</defs>
</svg>
